<?xml version="1.0" encoding="utf-8"?>
<!-- Generator: Adobe Illustrator 28.1.0, SVG Export Plug-In . SVG Version: 6.00 Build 0)  -->
<svg version="1.1" id="Calque_1" xmlns="http://www.w3.org/2000/svg" xmlns:xlink="http://www.w3.org/1999/xlink" x="0px" y="0px"
	 viewBox="0 0 392.1 392.1" style="enable-background:new 0 0 392.1 392.1;" xml:space="preserve">
<style type="text/css">
	.st0{fill:#E99652;}
	.st1{fill:none;stroke:#FFFFFF;stroke-width:6;stroke-miterlimit:10;}
	.st2{fill:#E99652;stroke:#FFFFFF;stroke-width:6;stroke-miterlimit:10;}
</style>
<circle class="st0" cx="195.21" cy="192.37" r="164.16"/>
<circle class="st1" cx="145.47" cy="125.83" r="24.31"/>
<circle class="st1" cx="243.58" cy="125.83" r="24.31"/>
<path class="st1" d="M286.17,206.67v72.31c0,2.87-2.33,5.2-5.2,5.2h-54.52v-12.49c0-17.44-14.14-31.58-31.58-31.58
	s-31.58,14.14-31.58,31.58v12.49H106c-2.87,0-5.2-2.33-5.2-5.2v-72.31c0-25.59,20.75-46.34,46.34-46.34
	c12.8,0,24.38,5.19,32.76,13.57c8.39,8.38,13.57,19.97,13.57,32.76c0-25.59,20.75-46.34,46.34-46.34c12.8,0,24.38,5.19,32.77,13.57
	C280.98,182.29,286.17,193.88,286.17,206.67z"/>
<path class="st1" d="M226.45,271.69v12.49h-63.16v-12.49c0-17.44,14.14-31.58,31.58-31.58S226.45,254.25,226.45,271.69z"/>
<circle class="st2" cx="195.02" cy="213.95" r="18.29"/>
<path class="st2" d="M100.8,206.67c0,0,13.46,63.95,73.02,59.74c4.17-0.29,7.63-3.32,8.52-7.4v0c1.3-5.95-3.28-11.54-9.37-11.46
	c-16.08,0.21-43-5.49-48.25-44.78"/>
<path class="st2" d="M286.61,206.67c0,0-13.46,63.95-73.02,59.74c-4.17-0.29-7.63-3.32-8.52-7.4v0c-1.3-5.95,3.28-11.54,9.37-11.46
	c16.08,0.21,43-5.49,48.25-44.78"/>
</svg>
