<?xml version="1.0" encoding="utf-8"?>
<!-- Generator: Adobe Illustrator 28.1.0, SVG Export Plug-In . SVG Version: 6.00 Build 0)  -->
<svg version="1.1" id="Calque_1" xmlns="http://www.w3.org/2000/svg" xmlns:xlink="http://www.w3.org/1999/xlink" x="0px" y="0px"
	 viewBox="0 0 407.63 396.36" style="enable-background:new 0 0 407.63 396.36;" xml:space="preserve">
<style type="text/css">
	.st0{fill:#E99652;}
	.st1{fill:none;stroke:#FFFFFF;stroke-width:6;stroke-miterlimit:10;}
</style>
<circle class="st0" cx="203.82" cy="198.18" r="153.85"/>
<path class="st1" d="M86.44,191.15L86.44,191.15c3.59-3.59,9.44-3.5,12.92,0.2c8.34,8.85,23.99,23.24,39.57,25.6
	c22.76,3.45,43.8,1.72,50.35,4.14c0,0,6.9-3.11,30.7-2.42s39.66-8.28,54.83-25.18l3.03-2.98c3.58-3.53,9.23-3.83,13.19-0.72l0,0
	c4.09,3.22,5.03,9.04,2.14,13.38c-6.32,9.48-19.07,25.33-38.99,35.51c-2.21,1.13-3.65,3.35-3.84,5.81l-2.69,34.41
	c-0.25,3.17-2.9,5.63-6.09,5.63h-37.57c-3.37,0-6.11-2.73-6.11-6.11v-27.35l-11.1-3.21c-2.21-0.64-4.42,1.02-4.42,3.32v29.3
	c0,3.37-2.73,6.11-6.11,6.11h-37.61c-3.16,0-5.81-2.43-6.08-5.58l-2.73-31.86c-0.33-3.91-2.68-7.35-6.18-9.11
	c-8.53-4.26-25.2-14.97-38.65-38.02C82.97,198.52,83.55,194.03,86.44,191.15z"/>
<circle class="st1" cx="153.63" cy="187.66" r="19.98"/>
<circle class="st1" cx="226.13" cy="185.5" r="19.98"/>
<path class="st1" d="M164.79,141.5c2.45,1.88-4.84,11.39-4.84,11.39c-0.57,1.35,0.42,2.83,1.88,2.82
	c6.28-0.04,20.86-0.71,30.67-5.61c18.68-0.45,33.62-11.21,33.62-24.43c0-13.51-15.59-24.46-34.83-24.46s-34.83,10.96-34.83,24.46
	C156.48,131.7,159.62,137.24,164.79,141.5"/>
<path class="st1" d="M254.49,153.48c2.45,1.88-4.84,11.39-4.84,11.39c-0.57,1.35,0.42,2.83,1.88,2.82
	c6.28-0.04,20.86-0.71,30.67-5.61c18.68-0.45,33.62-11.21,33.62-24.43c0-13.51-15.59-24.46-34.83-24.46s-34.83,10.96-34.83,24.46
	C246.18,143.68,249.31,149.21,254.49,153.48"/>
</svg>
