<?xml version="1.0" encoding="utf-8"?>
<!-- Generator: Adobe Illustrator 28.1.0, SVG Export Plug-In . SVG Version: 6.00 Build 0)  -->
<svg version="1.1" id="Calque_1" xmlns="http://www.w3.org/2000/svg" xmlns:xlink="http://www.w3.org/1999/xlink" x="0px" y="0px"
	 viewBox="0 0 392.1 392.1" style="enable-background:new 0 0 392.1 392.1;" xml:space="preserve">
<style type="text/css">
	.st0{fill:#3048CC;}
	.st1{fill:none;stroke:#FFFFFF;stroke-width:6;stroke-miterlimit:10;}
	.st2{fill:#FFFFFF;}
</style>
<circle class="st0" cx="196.05" cy="196.05" r="164.16"/>
<g>
	<path class="st1" d="M172.61,136.6c0,0-2.35-35.54,26.55-19.53s71.46,3.81,84.74-4.14c13.28-7.96,25.38,11.18,19.13,53.74
		c-6.24,42.57-29.68,93.33-83.57,78.88"/>
	<path class="st2" d="M234.3,190.87c0,0,25.31-1.99,38.64,13.99c1.4,1.68,1.17,4.18-0.55,5.54l0,0c-1.49,1.19-3.62,1.13-5.04-0.14
		c-4.47-4-15.42-11.72-33.04-11.16L234.3,190.87L234.3,190.87z"/>
	<circle class="st2" cx="271.79" cy="152.41" r="10.35"/>
	<path class="st2" d="M226.18,159.34c-2.2-9.88,1.1-30.76-36.62-17.27c-37.72,13.49-64.46,0-64.46,0
		c-37.77-20.09-37.72,24.96-37.72,24.96s-0.06,115.36,69.21,113.89C230.55,279.36,228.38,169.22,226.18,159.34z M113.68,181.21
		c0-5.71,4.63-10.35,10.35-10.35c5.71,0,10.35,4.63,10.35,10.35c0,5.71-4.63,10.35-10.35,10.35S113.68,186.92,113.68,181.21z
		 M194.63,233.96c-11.29,13.54-31.19,14.18-37,14.05c-4.06,0.18-25.92,0.42-37.97-14.02c-1.4-1.68-1.17-4.18,0.55-5.54
		c1.49-1.19,3.62-1.13,5.04,0.14c4.27,3.82,14.47,11.03,30.74,11.18v-0.05c17.62,0.56,28.58-7.16,33.04-11.16
		c1.42-1.27,3.55-1.32,5.04-0.14C195.79,229.78,196.03,232.28,194.63,233.96z M190.63,191.55c-5.71,0-10.35-4.63-10.35-10.35
		c0-5.71,4.63-10.35,10.35-10.35c5.71,0,10.35,4.63,10.35,10.35C200.97,186.92,196.35,191.55,190.63,191.55z"/>
</g>
</svg>
