<?xml version="1.0" encoding="utf-8"?>
<!-- Generator: Adobe Illustrator 28.1.0, SVG Export Plug-In . SVG Version: 6.00 Build 0)  -->
<svg version="1.1" id="Calque_1" xmlns="http://www.w3.org/2000/svg" xmlns:xlink="http://www.w3.org/1999/xlink" x="0px" y="0px"
	 viewBox="0 0 392.1 392.1" style="enable-background:new 0 0 392.1 392.1;" xml:space="preserve">
<style type="text/css">
	.st0{fill:#3048CC;}
	.st1{fill:none;stroke:#FFFFFF;stroke-width:6;stroke-miterlimit:10;}
	.st2{fill:#FFFFFF;}
</style>
<circle class="st0" cx="193.85" cy="200.15" r="164.16"/>
<g>
	<path class="st1" d="M241.87,304.91h-96.03c-16.62,0-30.09-13.47-30.09-30.09V125.48c0-16.62,13.47-30.09,30.09-30.09h96.03
		c16.62,0,30.09,13.47,30.09,30.09v149.35C271.96,291.44,258.49,304.91,241.87,304.91z"/>
	<path class="st2" d="M164.62,132.85h-22.24c-2.1,0-3.8-1.7-3.8-3.8v0c0-2.1,1.7-3.8,3.8-3.8h22.24c2.1,0,3.8,1.7,3.8,3.8v0
		C168.42,131.14,166.72,132.85,164.62,132.85z"/>
	<path class="st2" d="M246.64,189.6h-5.45c-2.1,0-3.8-1.7-3.8-3.8v0c0-2.1,1.7-3.8,3.8-3.8h5.45c2.1,0,3.8,1.7,3.8,3.8v0
		C250.44,187.9,248.74,189.6,246.64,189.6z"/>
	<path class="st2" d="M246.64,132.85h-57.35c-2.1,0-3.8-1.7-3.8-3.8v0c0-2.1,1.7-3.8,3.8-3.8h57.35c2.1,0,3.8,1.7,3.8,3.8v0
		C250.44,131.14,248.74,132.85,246.64,132.85z"/>
	<path class="st2" d="M162.49,246.79h-22.24c-2.1,0-3.8-1.7-3.8-3.8v0c0-2.1,1.7-3.8,3.8-3.8h22.24c2.1,0,3.8,1.7,3.8,3.8v0
		C166.3,245.08,164.6,246.79,162.49,246.79z"/>
	<path class="st2" d="M246.64,246.79h-57.35c-2.1,0-3.8-1.7-3.8-3.8v0c0-2.1,1.7-3.8,3.8-3.8h57.35c2.1,0,3.8,1.7,3.8,3.8v0
		C250.44,245.08,248.74,246.79,246.64,246.79z"/>
	<path class="st2" d="M246.64,161.23H139.75c-2.1,0-3.8-1.7-3.8-3.8v0c0-2.1,1.7-3.8,3.8-3.8h106.89c2.1,0,3.8,1.7,3.8,3.8v0
		C250.44,159.52,248.74,161.23,246.64,161.23z"/>
	<path class="st2" d="M246.64,217.98H139.75c-2.1,0-3.8-1.7-3.8-3.8l0,0c0-2.1,1.7-3.8,3.8-3.8h106.89c2.1,0,3.8,1.7,3.8,3.8l0,0
		C250.44,216.28,248.74,217.98,246.64,217.98z"/>
	<path class="st2" d="M246.64,276.65H139.75c-2.1,0-3.8-1.7-3.8-3.8l0,0c0-2.1,1.7-3.8,3.8-3.8h106.89c2.1,0,3.8,1.7,3.8,3.8l0,0
		C250.44,274.95,248.74,276.65,246.64,276.65z"/>
	<path class="st2" d="M215.05,189.6h-75.3c-2.1,0-3.8-1.7-3.8-3.8v0c0-2.1,1.7-3.8,3.8-3.8h75.3c2.1,0,3.8,1.7,3.8,3.8v0
		C218.85,187.9,217.15,189.6,215.05,189.6z"/>
</g>
</svg>
