<?xml version="1.0" encoding="utf-8"?>
<!-- Generator: Adobe Illustrator 28.1.0, SVG Export Plug-In . SVG Version: 6.00 Build 0)  -->
<svg version="1.1" id="Calque_1" xmlns="http://www.w3.org/2000/svg" xmlns:xlink="http://www.w3.org/1999/xlink" x="0px" y="0px"
	 viewBox="0 0 407.63 396.36" style="enable-background:new 0 0 407.63 396.36;" xml:space="preserve">
<style type="text/css">
	.st0{fill:#3148CC;}
	.st1{fill:none;stroke:#FFFFFF;stroke-width:6;stroke-miterlimit:10;}
</style>
<circle class="st0" cx="203.82" cy="198.18" r="153.85"/>
<g>
	<path class="st1" d="M111.92,114.3v167.76c0,2.29,1.85,4.13,4.13,4.13h32.31c2.16,0,3.96-1.66,4.12-3.82
		c0.87-11.58,0.92-46.78-27.58-67.57c0,0,10.96-3.25,2.03-14.6c0,0,49.08-4.1,45.83-60.89c0,0,25.94,5.63,62.06,0.32
		c0,0-1.63,55.7,45.02,60.56c0,0-6.09,12.97,2.43,15c0,0-28.54,14.76-26.51,67.02c0.09,2.21,1.91,3.96,4.13,3.96h31.67
		c2.29,0,4.13-1.85,4.13-4.13V114.3c0-2.29-1.85-4.13-4.13-4.13H116.07C113.78,110.17,111.92,112.02,111.92,114.3z"/>
	<polyline class="st1" points="126.94,200.21 111.92,200.21 111.92,214.77 126.94,214.77 	"/>
	<polyline class="st1" points="279.84,200.21 295.7,200.21 295.7,215.48 282.28,215.48 	"/>
	<path class="st1" d="M119.42,200.21c0,0,22.04-4.13,29.08-42.06"/>
	<path class="st1" d="M288.49,200.2c0,0-22.04-4.13-29.08-42.06"/>
	<path class="st1" d="M288.49,215.48c0,0-12.57,20.23-9.94,32.49"/>
	<path class="st1" d="M119.42,214.77c0,0,12.57,20.23,9.94,32.49"/>
	<path class="st1" d="M114.98,110.17c-1.09,0-1.62,1.35-0.8,2.08c7.76,7.01,35.89,29.29,89.63,29.53
		c54.98,0.24,82.97-22.88,90.05-29.73c0.71-0.69,0.23-1.89-0.77-1.89H114.98z"/>
	<path class="st1" d="M112.99,110.88c0,0,80.71,36.5,181.64,0"/>
</g>
</svg>
